<svg width="144" height="41" viewBox="0 0 144 41" fill="none" xmlns="http://www.w3.org/2000/svg">
<path d="M32.2747 13.8099C36.7685 20.9793 35.1573 29.1701 29.2819 32.8529C29.2819 32.8529 29.2819 32.8529 21.5527 19.3794C13.9276 6.08748 13.5297 6.32377 13.5297 6.32377C21.4324 6.09548 27.7808 6.64052 32.2747 13.8099Z" fill="#F8F8F8"/>
<path d="M9.00535 23.8086L17.7527 37.6163H9.18237H0.612061L9.00535 23.8086Z" fill="#F8F8F8"/>
<path d="M0 6.42773L10.951 6.42773L27.7515 33.8073C25.8042 35.8416 22.7521 36.9021 19.6573 37.3783L0 6.42773Z" fill="#F8F8F8"/>
<path d="M61.5 18.96C62.98 18.96 64.2733 19.2533 65.38 19.84C66.4867 20.4267 67.34 21.2533 67.94 22.32C68.5533 23.3733 68.86 24.5933 68.86 25.98C68.86 27.3533 68.5533 28.5733 67.94 29.64C67.34 30.7067 66.48 31.5333 65.36 32.12C64.2533 32.7067 62.9667 33 61.5 33H56.24V18.96H61.5ZM61.28 30.04C62.5733 30.04 63.58 29.6867 64.3 28.98C65.02 28.2733 65.38 27.2733 65.38 25.98C65.38 24.6867 65.02 23.68 64.3 22.96C63.58 22.24 62.5733 21.88 61.28 21.88H59.66V30.04H61.28ZM81.2912 27.24C81.2912 27.56 81.2713 27.8933 81.2313 28.24H73.4913C73.5446 28.9333 73.7646 29.4667 74.1513 29.84C74.5513 30.2 75.0379 30.38 75.6113 30.38C76.4646 30.38 77.0579 30.02 77.3913 29.3H81.0313C80.8446 30.0333 80.5046 30.6933 80.0113 31.28C79.5313 31.8667 78.9246 32.3267 78.1913 32.66C77.4579 32.9933 76.6379 33.16 75.7313 33.16C74.6379 33.16 73.6646 32.9267 72.8113 32.46C71.9579 31.9933 71.2913 31.3267 70.8113 30.46C70.3313 29.5933 70.0913 28.58 70.0913 27.42C70.0913 26.26 70.3246 25.2467 70.7913 24.38C71.2713 23.5133 71.9379 22.8467 72.7913 22.38C73.6446 21.9133 74.6246 21.68 75.7313 21.68C76.8113 21.68 77.7713 21.9067 78.6113 22.36C79.4513 22.8133 80.1046 23.46 80.5713 24.3C81.0513 25.14 81.2912 26.12 81.2912 27.24ZM77.7913 26.34C77.7913 25.7533 77.5913 25.2867 77.1913 24.94C76.7913 24.5933 76.2913 24.42 75.6913 24.42C75.1179 24.42 74.6313 24.5867 74.2313 24.92C73.8446 25.2533 73.6046 25.7267 73.5113 26.34H77.7913ZM88.1155 29.8L90.5355 21.84H94.1755L90.2155 33H85.9955L82.0355 21.84H85.6955L88.1155 29.8ZM105.715 18.96V21.7H101.995V33H98.575V21.7H94.855V18.96H105.715ZM106.751 27.4C106.751 26.2533 106.965 25.2467 107.391 24.38C107.831 23.5133 108.425 22.8467 109.171 22.38C109.918 21.9133 110.751 21.68 111.671 21.68C112.458 21.68 113.145 21.84 113.731 22.16C114.331 22.48 114.791 22.9 115.111 23.42V21.84H118.531V33H115.111V31.42C114.778 31.94 114.311 32.36 113.711 32.68C113.125 33 112.438 33.16 111.651 33.16C110.745 33.16 109.918 32.9267 109.171 32.46C108.425 31.98 107.831 31.3067 107.391 30.44C106.965 29.56 106.751 28.5467 106.751 27.4ZM115.111 27.42C115.111 26.5667 114.871 25.8933 114.391 25.4C113.925 24.9067 113.351 24.66 112.671 24.66C111.991 24.66 111.411 24.9067 110.931 25.4C110.465 25.88 110.231 26.5467 110.231 27.4C110.231 28.2533 110.465 28.9333 110.931 29.44C111.411 29.9333 111.991 30.18 112.671 30.18C113.351 30.18 113.925 29.9333 114.391 29.44C114.871 28.9467 115.111 28.2733 115.111 27.42ZM125.546 33.16C124.572 33.16 123.706 32.9933 122.946 32.66C122.186 32.3267 121.586 31.8733 121.146 31.3C120.706 30.7133 120.459 30.06 120.406 29.34H123.786C123.826 29.7267 124.006 30.04 124.326 30.28C124.646 30.52 125.039 30.64 125.506 30.64C125.932 30.64 126.259 30.56 126.486 30.4C126.726 30.2267 126.846 30.0067 126.846 29.74C126.846 29.42 126.679 29.1867 126.346 29.04C126.012 28.88 125.472 28.7067 124.726 28.52C123.926 28.3333 123.259 28.14 122.726 27.94C122.192 27.7267 121.732 27.4 121.346 26.96C120.959 26.5067 120.766 25.9 120.766 25.14C120.766 24.5 120.939 23.92 121.286 23.4C121.646 22.8667 122.166 22.4467 122.846 22.14C123.539 21.8333 124.359 21.68 125.306 21.68C126.706 21.68 127.806 22.0267 128.606 22.72C129.419 23.4133 129.886 24.3333 130.006 25.48H126.846C126.792 25.0933 126.619 24.7867 126.326 24.56C126.046 24.3333 125.672 24.22 125.206 24.22C124.806 24.22 124.499 24.3 124.286 24.46C124.072 24.6067 123.966 24.8133 123.966 25.08C123.966 25.4 124.132 25.64 124.466 25.8C124.812 25.96 125.346 26.12 126.066 26.28C126.892 26.4933 127.566 26.7067 128.086 26.92C128.606 27.12 129.059 27.4533 129.446 27.92C129.846 28.3733 130.052 28.9867 130.066 29.76C130.066 30.4133 129.879 31 129.506 31.52C129.146 32.0267 128.619 32.4267 127.926 32.72C127.246 33.0133 126.452 33.16 125.546 33.16ZM138.978 33L135.578 28.32V33H132.158V18.2H135.578V26.38L138.958 21.84H143.178L138.538 27.44L143.218 33H138.978Z" fill="#F8F8F8"/>
</svg>
