<svg width="200" height="59" viewBox="0 0 200 59" fill="none" xmlns="http://www.w3.org/2000/svg">
<path d="M44.826 19.1804C51.0675 29.1379 48.8296 40.5141 40.6693 45.629C40.6693 45.629 40.6693 45.629 29.9343 26.9158C19.3439 8.45483 18.7913 8.78302 18.7913 8.78302C29.7672 8.46595 38.5845 9.22294 44.826 19.1804Z" fill="white"/>
<path d="M12.5074 33.0675L24.6565 52.2449H12.7533H0.850098L12.5074 33.0675Z" fill="white"/>
<path d="M0 8.92741L15.2097 8.92741L38.5437 46.9546C35.8392 49.78 31.6002 51.253 27.3018 51.9142L0 8.92741Z" fill="white"/>
<path d="M82.8889 24.6267C84.3689 24.6267 85.6622 24.92 86.7689 25.5067C87.8756 26.0933 88.7289 26.92 89.3289 27.9867C89.9422 29.04 90.2489 30.26 90.2489 31.6467C90.2489 33.02 89.9422 34.24 89.3289 35.3067C88.7289 36.3733 87.8689 37.2 86.7489 37.7867C85.6422 38.3733 84.3556 38.6667 82.8889 38.6667H77.6289V24.6267H82.8889ZM82.6689 35.7067C83.9622 35.7067 84.9689 35.3533 85.6889 34.6467C86.4089 33.94 86.7689 32.94 86.7689 31.6467C86.7689 30.3533 86.4089 29.3467 85.6889 28.6267C84.9689 27.9067 83.9622 27.5467 82.6689 27.5467H81.0489V35.7067H82.6689ZM102.68 32.9067C102.68 33.2267 102.66 33.56 102.62 33.9067H94.8802C94.9335 34.6 95.1535 35.1333 95.5402 35.5067C95.9402 35.8667 96.4268 36.0467 97.0002 36.0467C97.8535 36.0467 98.4468 35.6867 98.7802 34.9667H102.42C102.234 35.7 101.894 36.36 101.4 36.9467C100.92 37.5333 100.314 37.9933 99.5802 38.3267C98.8468 38.66 98.0268 38.8267 97.1202 38.8267C96.0268 38.8267 95.0535 38.5933 94.2002 38.1267C93.3468 37.66 92.6802 36.9933 92.2002 36.1267C91.7202 35.26 91.4802 34.2467 91.4802 33.0867C91.4802 31.9267 91.7135 30.9133 92.1802 30.0467C92.6602 29.18 93.3268 28.5133 94.1802 28.0467C95.0335 27.58 96.0135 27.3467 97.1202 27.3467C98.2002 27.3467 99.1602 27.5733 100 28.0267C100.84 28.48 101.493 29.1267 101.96 29.9667C102.44 30.8067 102.68 31.7867 102.68 32.9067ZM99.1802 32.0067C99.1802 31.42 98.9802 30.9533 98.5802 30.6067C98.1802 30.26 97.6802 30.0867 97.0802 30.0867C96.5068 30.0867 96.0202 30.2533 95.6202 30.5867C95.2335 30.92 94.9935 31.3933 94.9002 32.0067H99.1802ZM109.504 35.4667L111.924 27.5067H115.564L111.604 38.6667H107.384L103.424 27.5067H107.084L109.504 35.4667ZM127.104 24.6267V27.3667H123.384V38.6667H119.964V27.3667H116.244V24.6267H127.104ZM128.14 33.0667C128.14 31.92 128.354 30.9133 128.78 30.0467C129.22 29.18 129.814 28.5133 130.56 28.0467C131.307 27.58 132.14 27.3467 133.06 27.3467C133.847 27.3467 134.534 27.5067 135.12 27.8267C135.72 28.1467 136.18 28.5667 136.5 29.0867V27.5067H139.92V38.6667H136.5V37.0867C136.167 37.6067 135.7 38.0267 135.1 38.3467C134.514 38.6667 133.827 38.8267 133.04 38.8267C132.134 38.8267 131.307 38.5933 130.56 38.1267C129.814 37.6467 129.22 36.9733 128.78 36.1067C128.354 35.2267 128.14 34.2133 128.14 33.0667ZM136.5 33.0867C136.5 32.2333 136.26 31.56 135.78 31.0667C135.314 30.5733 134.74 30.3267 134.06 30.3267C133.38 30.3267 132.8 30.5733 132.32 31.0667C131.854 31.5467 131.62 32.2133 131.62 33.0667C131.62 33.92 131.854 34.6 132.32 35.1067C132.8 35.6 133.38 35.8467 134.06 35.8467C134.74 35.8467 135.314 35.6 135.78 35.1067C136.26 34.6133 136.5 33.94 136.5 33.0867ZM146.935 38.8267C145.961 38.8267 145.095 38.66 144.335 38.3267C143.575 37.9933 142.975 37.54 142.535 36.9667C142.095 36.38 141.848 35.7267 141.795 35.0067H145.175C145.215 35.3933 145.395 35.7067 145.715 35.9467C146.035 36.1867 146.428 36.3067 146.895 36.3067C147.321 36.3067 147.648 36.2267 147.875 36.0667C148.115 35.8933 148.235 35.6733 148.235 35.4067C148.235 35.0867 148.068 34.8533 147.735 34.7067C147.401 34.5467 146.861 34.3733 146.115 34.1867C145.315 34 144.648 33.8067 144.115 33.6067C143.581 33.3933 143.121 33.0667 142.735 32.6267C142.348 32.1733 142.155 31.5667 142.155 30.8067C142.155 30.1667 142.328 29.5867 142.675 29.0667C143.035 28.5333 143.555 28.1133 144.235 27.8067C144.928 27.5 145.748 27.3467 146.695 27.3467C148.095 27.3467 149.195 27.6933 149.995 28.3867C150.808 29.08 151.275 30 151.395 31.1467H148.235C148.181 30.76 148.008 30.4533 147.715 30.2267C147.435 30 147.061 29.8867 146.595 29.8867C146.195 29.8867 145.888 29.9667 145.675 30.1267C145.461 30.2733 145.355 30.48 145.355 30.7467C145.355 31.0667 145.521 31.3067 145.855 31.4667C146.201 31.6267 146.735 31.7867 147.455 31.9467C148.281 32.16 148.955 32.3733 149.475 32.5867C149.995 32.7867 150.448 33.12 150.835 33.5867C151.235 34.04 151.441 34.6533 151.455 35.4267C151.455 36.08 151.268 36.6667 150.895 37.1867C150.535 37.6933 150.008 38.0933 149.315 38.3867C148.635 38.68 147.841 38.8267 146.935 38.8267ZM160.367 38.6667L156.967 33.9867V38.6667H153.547V23.8667H156.967V32.0467L160.347 27.5067H164.567L159.927 33.1067L164.607 38.6667H160.367Z" fill="white"/>
</svg>
