<svg width="163" height="54" viewBox="0 0 163 54" fill="none" xmlns="http://www.w3.org/2000/svg">
<path d="M44.8259 19.1806C51.0674 29.1381 48.8296 40.5142 40.6693 45.6292C40.6693 45.6292 40.6693 45.6292 29.9342 26.916C19.3439 8.45497 18.7913 8.78316 18.7913 8.78316C29.7672 8.46609 38.5845 9.22307 44.8259 19.1806Z" fill="url(#paint0_linear)"/>
<path d="M12.5075 33.0674L24.6566 52.2448H12.7534H0.850159L12.5075 33.0674Z" fill="url(#paint1_linear)"/>
<path d="M0 8.92725L15.2097 8.92725L38.5437 46.9544C35.8392 49.7798 31.6002 51.2528 27.3018 51.9141L0 8.92725Z" fill="url(#paint2_linear)"/>
<path d="M73.5 27.96C74.98 27.96 76.2733 28.2533 77.38 28.84C78.4867 29.4267 79.34 30.2533 79.94 31.32C80.5533 32.3733 80.86 33.5933 80.86 34.98C80.86 36.3533 80.5533 37.5733 79.94 38.64C79.34 39.7067 78.48 40.5333 77.36 41.12C76.2533 41.7067 74.9667 42 73.5 42H68.24V27.96H73.5ZM73.28 39.04C74.5733 39.04 75.58 38.6867 76.3 37.98C77.02 37.2733 77.38 36.2733 77.38 34.98C77.38 33.6867 77.02 32.68 76.3 31.96C75.58 31.24 74.5733 30.88 73.28 30.88H71.66V39.04H73.28ZM93.2912 36.24C93.2912 36.56 93.2713 36.8933 93.2313 37.24H85.4913C85.5446 37.9333 85.7646 38.4667 86.1513 38.84C86.5513 39.2 87.0379 39.38 87.6113 39.38C88.4646 39.38 89.0579 39.02 89.3913 38.3H93.0313C92.8446 39.0333 92.5046 39.6933 92.0113 40.28C91.5313 40.8667 90.9246 41.3267 90.1913 41.66C89.4579 41.9933 88.6379 42.16 87.7313 42.16C86.6379 42.16 85.6646 41.9267 84.8113 41.46C83.9579 40.9933 83.2913 40.3267 82.8113 39.46C82.3313 38.5933 82.0913 37.58 82.0913 36.42C82.0913 35.26 82.3246 34.2467 82.7913 33.38C83.2713 32.5133 83.9379 31.8467 84.7913 31.38C85.6446 30.9133 86.6246 30.68 87.7313 30.68C88.8113 30.68 89.7713 30.9067 90.6113 31.36C91.4513 31.8133 92.1046 32.46 92.5713 33.3C93.0513 34.14 93.2912 35.12 93.2912 36.24ZM89.7913 35.34C89.7913 34.7533 89.5913 34.2867 89.1913 33.94C88.7913 33.5933 88.2913 33.42 87.6913 33.42C87.1179 33.42 86.6313 33.5867 86.2313 33.92C85.8446 34.2533 85.6046 34.7267 85.5113 35.34H89.7913ZM100.115 38.8L102.535 30.84H106.175L102.215 42H97.9955L94.0355 30.84H97.6955L100.115 38.8ZM117.715 27.96V30.7H113.995V42H110.575V30.7H106.855V27.96H117.715ZM118.751 36.4C118.751 35.2533 118.965 34.2467 119.391 33.38C119.831 32.5133 120.425 31.8467 121.171 31.38C121.918 30.9133 122.751 30.68 123.671 30.68C124.458 30.68 125.145 30.84 125.731 31.16C126.331 31.48 126.791 31.9 127.111 32.42V30.84H130.531V42H127.111V40.42C126.778 40.94 126.311 41.36 125.711 41.68C125.125 42 124.438 42.16 123.651 42.16C122.745 42.16 121.918 41.9267 121.171 41.46C120.425 40.98 119.831 40.3067 119.391 39.44C118.965 38.56 118.751 37.5467 118.751 36.4ZM127.111 36.42C127.111 35.5667 126.871 34.8933 126.391 34.4C125.925 33.9067 125.351 33.66 124.671 33.66C123.991 33.66 123.411 33.9067 122.931 34.4C122.465 34.88 122.231 35.5467 122.231 36.4C122.231 37.2533 122.465 37.9333 122.931 38.44C123.411 38.9333 123.991 39.18 124.671 39.18C125.351 39.18 125.925 38.9333 126.391 38.44C126.871 37.9467 127.111 37.2733 127.111 36.42ZM137.546 42.16C136.572 42.16 135.706 41.9933 134.946 41.66C134.186 41.3267 133.586 40.8733 133.146 40.3C132.706 39.7133 132.459 39.06 132.406 38.34H135.786C135.826 38.7267 136.006 39.04 136.326 39.28C136.646 39.52 137.039 39.64 137.506 39.64C137.932 39.64 138.259 39.56 138.486 39.4C138.726 39.2267 138.846 39.0067 138.846 38.74C138.846 38.42 138.679 38.1867 138.346 38.04C138.012 37.88 137.472 37.7067 136.726 37.52C135.926 37.3333 135.259 37.14 134.726 36.94C134.192 36.7267 133.732 36.4 133.346 35.96C132.959 35.5067 132.766 34.9 132.766 34.14C132.766 33.5 132.939 32.92 133.286 32.4C133.646 31.8667 134.166 31.4467 134.846 31.14C135.539 30.8333 136.359 30.68 137.306 30.68C138.706 30.68 139.806 31.0267 140.606 31.72C141.419 32.4133 141.886 33.3333 142.006 34.48H138.846C138.792 34.0933 138.619 33.7867 138.326 33.56C138.046 33.3333 137.672 33.22 137.206 33.22C136.806 33.22 136.499 33.3 136.286 33.46C136.072 33.6067 135.966 33.8133 135.966 34.08C135.966 34.4 136.132 34.64 136.466 34.8C136.812 34.96 137.346 35.12 138.066 35.28C138.892 35.4933 139.566 35.7067 140.086 35.92C140.606 36.12 141.059 36.4533 141.446 36.92C141.846 37.3733 142.052 37.9867 142.066 38.76C142.066 39.4133 141.879 40 141.506 40.52C141.146 41.0267 140.619 41.4267 139.926 41.72C139.246 42.0133 138.452 42.16 137.546 42.16ZM150.978 42L147.578 37.32V42H144.158V27.2H147.578V35.38L150.958 30.84H155.178L150.538 36.44L155.218 42H150.978Z" fill="url(#paint3_linear)"/>
<defs>
<linearGradient id="paint0_linear" x1="25.3603" y1="4.66562" x2="48.1124" y2="40.9637" gradientUnits="userSpaceOnUse">
<stop offset="0.0833333" stop-color="#F25A05"/>
<stop offset="1" stop-color="#B600D8"/>
</linearGradient>
<linearGradient id="paint1_linear" x1="12.7534" y1="33.0674" x2="12.7534" y2="52.2448" gradientUnits="userSpaceOnUse">
<stop offset="0.0833333" stop-color="#F25A05"/>
<stop offset="1" stop-color="#B600D8"/>
</linearGradient>
<linearGradient id="paint2_linear" x1="5.45968" y1="5.50499" x2="33.6418" y2="50.4652" gradientUnits="userSpaceOnUse">
<stop offset="0.0833333" stop-color="#F25A05"/>
<stop offset="1" stop-color="#B600D8"/>
</linearGradient>
<linearGradient id="paint3_linear" x1="129.5" y1="48.3333" x2="128.216" y2="23.9816" gradientUnits="userSpaceOnUse">
<stop offset="0.167345" stop-color="#B600D8"/>
<stop offset="1" stop-color="#F25A05"/>
</linearGradient>
</defs>
</svg>
