<svg width="1440" height="924" viewBox="0 0 1440 924" fill="none" xmlns="http://www.w3.org/2000/svg">
<g opacity="0.8">
<rect width="8" height="241" rx="4" transform="matrix(-0.819152 0.573576 0.573576 0.819152 289.553 105)" fill="white"/>
<rect width="6" height="181" rx="3" transform="matrix(-0.819152 0.573576 0.573576 0.819152 660.915 87)" fill="white"/>
<rect width="9" height="70" rx="4.5" transform="matrix(-0.819152 0.573576 0.573576 0.819152 966.372 248)" fill="white"/>
<rect width="30" height="400" rx="15" transform="matrix(-0.819152 0.573576 0.573576 0.819152 324.575 86)" fill="white"/>
<rect width="23" height="300" rx="11.25" transform="matrix(-0.819152 0.573576 0.573576 0.819152 370.84 -24)" fill="url(#paint0_linear)"/>
<rect width="19" height="400" rx="9.5" transform="matrix(-0.819152 0.573576 0.573576 0.819152 1287.56 4)" fill="white"/>
<rect width="19" height="400" rx="9.5" transform="matrix(-0.819152 0.573576 0.573576 0.819152 1022.56 718)" fill="white"/>
<rect opacity="0.312783" width="4.84701" height="241" rx="2.42351" transform="matrix(-0.809017 0.587785 0.587785 0.809017 617.921 656)" fill="white"/>
<rect opacity="0.312783" width="4.84701" height="241" rx="2.42351" transform="matrix(-0.809017 0.587785 0.587785 0.809017 948.921 802)" fill="white"/>
<rect width="4.84701" height="100" rx="2.42351" transform="matrix(-0.809017 0.587785 0.587785 0.809017 564.921 626)" fill="white"/>
<rect opacity="0.169044" width="6.85" height="75" rx="3.425" transform="matrix(-0.809017 0.587785 0.587785 0.809017 77.5417 255.713)" fill="white"/>
<rect opacity="0.312783" width="8" height="241" rx="4" transform="matrix(-0.809017 0.587785 0.587785 0.809017 754.472 710)" fill="white"/>
<rect width="4.84701" height="241" rx="2.42351" transform="matrix(-0.809017 0.587785 0.587785 0.809017 -20.0787 450)" fill="white"/>
<rect opacity="0.143965" width="12" height="241" rx="6" transform="matrix(-0.809017 0.587785 0.587785 0.809017 -52.2917 450)" fill="white"/>
</g>
<defs>
<linearGradient id="paint0_linear" x1="80.0602" y1="-1557.11" x2="-161.28" y2="-1554.5" gradientUnits="userSpaceOnUse">
<stop stop-color="white"/>
</linearGradient>
</defs>
</svg>
