<svg width="36" height="36" viewBox="0 0 36 36" fill="none" xmlns="http://www.w3.org/2000/svg">
<path d="M12.2071 28.4151C12.2071 28.5562 12.0448 28.6691 11.8401 28.6691C11.6073 28.6903 11.445 28.5774 11.445 28.4151C11.445 28.2739 11.6073 28.161 11.8119 28.161C12.0236 28.1399 12.2071 28.2528 12.2071 28.4151ZM10.0125 28.0975C9.96313 28.2387 10.1043 28.401 10.316 28.4433C10.4994 28.5139 10.7111 28.4433 10.7535 28.3022C10.7958 28.161 10.6617 27.9987 10.45 27.9352C10.2666 27.8858 10.0619 27.9564 10.0125 28.0975ZM13.1315 27.9776C12.9268 28.027 12.7857 28.161 12.8069 28.3233C12.828 28.4645 13.0115 28.5562 13.2232 28.5068C13.4278 28.4574 13.569 28.3233 13.5478 28.1822C13.5266 28.0481 13.3361 27.9564 13.1315 27.9776ZM17.7746 0.937256C7.98732 0.937256 0.500427 8.3677 0.500427 18.155C0.500427 25.9806 5.42583 32.6772 12.4611 35.034C13.3643 35.1963 13.6819 34.6389 13.6819 34.1802C13.6819 33.7427 13.6607 31.3294 13.6607 29.8475C13.6607 29.8475 8.72119 30.906 7.6839 27.7447C7.6839 27.7447 6.87946 25.6913 5.7222 25.162C5.7222 25.162 4.10627 24.0542 5.83511 24.0754C5.83511 24.0754 7.59216 24.2165 8.5589 25.8959C10.1043 28.6197 12.694 27.8364 13.703 27.3707C13.8653 26.2417 14.324 25.4584 14.8321 24.9927C10.8875 24.5552 6.90769 23.9836 6.90769 17.1953C6.90769 15.2548 7.44398 14.281 8.57301 13.0391C8.38954 12.5804 7.78974 10.6893 8.75648 8.24774C10.2313 7.78907 13.6254 10.153 13.6254 10.153C15.0367 9.75782 16.5539 9.55318 18.0569 9.55318C19.5599 9.55318 21.077 9.75782 22.4883 10.153C22.4883 10.153 25.8825 7.78201 27.3573 8.24774C28.324 10.6963 27.7242 12.5804 27.5408 13.0391C28.6698 14.2881 29.3613 15.2618 29.3613 17.1953C29.3613 24.0048 25.2051 24.5481 21.2605 24.9927C21.9097 25.5502 22.4601 26.6086 22.4601 28.2669C22.4601 30.6449 22.4389 33.5875 22.4389 34.1661C22.4389 34.6247 22.7635 35.1822 23.6597 35.0199C30.7162 32.6772 35.5004 25.9806 35.5004 18.155C35.5004 8.3677 27.5619 0.937256 17.7746 0.937256ZM7.3593 25.275C7.26756 25.3455 7.28873 25.5078 7.40869 25.6419C7.5216 25.7548 7.6839 25.8042 7.77563 25.7125C7.86736 25.6419 7.84619 25.4796 7.72623 25.3455C7.61333 25.2326 7.45103 25.1832 7.3593 25.275ZM6.5972 24.7034C6.54781 24.7951 6.61837 24.908 6.7595 24.9786C6.8724 25.0491 7.01353 25.028 7.06293 24.9292C7.11232 24.8375 7.04176 24.7245 6.90063 24.654C6.7595 24.6116 6.6466 24.6328 6.5972 24.7034ZM8.88349 27.2155C8.77059 27.3072 8.81293 27.5189 8.97523 27.653C9.13752 27.8153 9.34216 27.8364 9.4339 27.7235C9.52563 27.6318 9.48329 27.4201 9.34216 27.286C9.18692 27.1237 8.97523 27.1026 8.88349 27.2155ZM8.07906 26.1782C7.96615 26.2487 7.96615 26.4322 8.07906 26.5945C8.19196 26.7568 8.38248 26.8274 8.47422 26.7568C8.58712 26.6651 8.58712 26.4816 8.47422 26.3193C8.37543 26.157 8.19196 26.0864 8.07906 26.1782Z" fill="black"/>
</svg>
