<svg width="40" height="40" viewBox="0 0 40 40" fill="none" xmlns="http://www.w3.org/2000/svg">
<path d="M17.9125 7.49843H24.175L31.0429 0.616838C31.237 0.421383 31.4679 0.266246 31.7222 0.160376C31.9766 0.0545069 32.2495 0 32.5251 0C32.8006 0 33.0735 0.0545069 33.3279 0.160376C33.5822 0.266246 33.8131 0.421383 34.0072 0.616838L39.393 6.01785C39.7818 6.40856 40 6.93709 40 7.48801C40 8.03892 39.7818 8.56745 39.393 8.95817L34.6126 13.7544H17.9125V17.9251C17.9125 18.4782 17.6926 19.0086 17.3011 19.3996C16.9096 19.7907 16.3786 20.0104 15.825 20.0104C15.2713 20.0104 14.7404 19.7907 14.3489 19.3996C13.9574 19.0086 13.7375 18.4782 13.7375 17.9251V11.6691C13.7375 10.563 14.1773 9.50214 14.9603 8.71999C15.7433 7.93784 16.8052 7.49843 17.9125 7.49843ZM5.38743 17.9251V26.2664L0.607033 31.0418C0.218232 31.4325 0 31.9611 0 32.512C0 33.0629 0.218232 33.5914 0.607033 33.9822L5.99281 39.3832C6.18687 39.5786 6.41775 39.7338 6.67213 39.8396C6.92651 39.9455 7.19936 40 7.47494 40C7.75052 40 8.02337 39.9455 8.27775 39.8396C8.53213 39.7338 8.76301 39.5786 8.95707 39.3832L17.9125 30.4371H26.2625C26.8162 30.4371 27.3471 30.2174 27.7386 29.8263C28.1301 29.4352 28.35 28.9048 28.35 28.3518V26.2664H30.4375C30.9912 26.2664 31.5222 26.0467 31.9136 25.6556C32.3051 25.2646 32.5251 24.7342 32.5251 24.1811V22.0958H34.6126C35.1662 22.0958 35.6972 21.8761 36.0887 21.485C36.4801 21.0939 36.7001 20.5635 36.7001 20.0104V17.9251H22.0875V20.0104C22.0875 21.1166 21.6476 22.1774 20.8647 22.9595C20.0817 23.7417 19.0198 24.1811 17.9125 24.1811H13.7375C12.6302 24.1811 11.5683 23.7417 10.7853 22.9595C10.0023 22.1774 9.56245 21.1166 9.56245 20.0104V13.7544L5.38743 17.9251Z" fill="#F3F3F3"/>
</svg>
