<svg width="99" height="79" viewBox="0 0 99 79" fill="none" xmlns="http://www.w3.org/2000/svg">
<g opacity="0.15">
<path d="M8.39893 11.3167C15.3416 3.80681 25.8471 0 39.6187 0H44.5671V13.9188L40.5886 14.7137C33.8092 16.0666 29.0933 18.7279 26.5696 22.6335C25.2528 24.7375 24.506 27.1466 24.4022 29.625H39.6187C40.9311 29.625 42.1897 30.1452 43.1177 31.0712C44.0458 31.9971 44.5671 33.253 44.5671 34.5625V69.125C44.5671 74.5711 40.1284 79 34.6702 79H4.97956C3.66715 79 2.40849 78.4798 1.48048 77.5538C0.552467 76.6279 0.031115 75.372 0.031115 74.0625V49.375L0.0459604 34.9624C0.00142442 34.4144 -0.93878 21.4287 8.39893 11.3167ZM89.1031 79H59.4124C58.1 79 56.8414 78.4798 55.9134 77.5538C54.9854 76.6279 54.464 75.372 54.464 74.0625V49.375L54.4788 34.9624C54.4343 34.4144 53.4941 21.4287 62.8318 11.3167C69.7745 3.80681 80.28 0 94.0516 0H99V13.9188L95.0214 14.7137C88.2421 16.0666 83.5262 18.7279 81.0025 22.6335C79.6857 24.7375 78.9389 27.1466 78.8351 29.625H94.0516C95.364 29.625 96.6226 30.1452 97.5506 31.0712C98.4786 31.9971 99 33.253 99 34.5625V69.125C99 74.5711 94.5612 79 89.1031 79Z" fill="#E2A365"/>
</g>
</svg>
