<svg width="24" height="24" viewBox="0 0 24 24" fill="none" xmlns="http://www.w3.org/2000/svg">
<path d="M23.6719 20.7495L18.9984 16.0766C18.7875 15.8656 18.5016 15.7485 18.2016 15.7485H17.4375C18.7312 14.0939 19.5 12.0129 19.5 9.74905C19.5 4.36364 15.1359 0 9.75 0C4.36406 0 0 4.36364 0 9.74905C0 15.1345 4.36406 19.4981 9.75 19.4981C12.0141 19.4981 14.0953 18.7294 15.75 17.4358V18.1998C15.75 18.4998 15.8672 18.7857 16.0781 18.9966L20.7516 23.6696C21.1922 24.1101 21.9047 24.1101 22.3406 23.6696L23.6672 22.3431C24.1078 21.9025 24.1078 21.1901 23.6719 20.7495ZM9.75 15.7485C6.43594 15.7485 3.75 13.0675 3.75 9.74905C3.75 6.43531 6.43125 3.74963 9.75 3.74963C13.0641 3.74963 15.75 6.43062 15.75 9.74905C15.75 13.0628 13.0687 15.7485 9.75 15.7485Z" fill="#2A6089"/>
</svg>
