<svg width="37" height="40" viewBox="0 0 37 40" fill="none" xmlns="http://www.w3.org/2000/svg">
<path d="M30.4187 28.2731C28.8775 28.2731 27.4985 28.8755 26.444 29.8193L11.985 21.4859C12.0864 21.0241 12.1675 20.5622 12.1675 20.0803C12.1675 19.5984 12.0864 19.1365 11.985 18.6747L26.2818 10.4217C27.3768 11.4257 28.8166 12.0482 30.4187 12.0482C33.785 12.0482 36.5024 9.35743 36.5024 6.0241C36.5024 2.69076 33.785 0 30.4187 0C27.0524 0 24.335 2.69076 24.335 6.0241C24.335 6.50602 24.4161 6.96787 24.5175 7.42972L10.2207 15.6827C9.12561 14.6787 7.68579 14.0562 6.08374 14.0562C2.7174 14.0562 0 16.747 0 20.0803C0 23.4137 2.7174 26.1044 6.08374 26.1044C7.68579 26.1044 9.12561 25.4819 10.2207 24.4779L24.6594 32.8313C24.558 33.253 24.4972 33.6948 24.4972 34.1365C24.4972 37.3695 27.1538 40 30.4187 40C33.6836 40 36.3402 37.3695 36.3402 34.1365C36.3402 30.9036 33.6836 28.2731 30.4187 28.2731Z" fill="#FEFEFE"/>
</svg>
