<svg width="36" height="36" viewBox="0 0 36 36" fill="none" xmlns="http://www.w3.org/2000/svg">
<path d="M24.2481 11.2258C23.2249 4.9244 20.8116 0.5 18.0031 0.5C15.1946 0.5 12.7813 4.9244 11.7582 11.2258H24.2481ZM11.2289 18C11.2289 19.5665 11.3136 21.0696 11.4618 22.5161H24.5374C24.6856 21.0696 24.7702 19.5665 24.7702 18C24.7702 16.4335 24.6856 14.9304 24.5374 13.4839H11.4618C11.3136 14.9304 11.2289 16.4335 11.2289 18ZM34.1412 11.2258C32.1231 6.43448 28.0374 2.72984 22.992 1.23387C24.7138 3.61895 25.8993 7.21069 26.5202 11.2258H34.1412ZM13.0071 1.23387C7.96884 2.72984 3.8761 6.43448 1.86501 11.2258H9.48597C10.0999 7.21069 11.2854 3.61895 13.0071 1.23387V1.23387ZM34.8963 13.4839H26.8025C26.9507 14.9657 27.0354 16.4829 27.0354 18C27.0354 19.5171 26.9507 21.0343 26.8025 22.5161H34.8892C35.2773 21.0696 35.4961 19.5665 35.4961 18C35.4961 16.4335 35.2773 14.9304 34.8963 13.4839ZM8.97085 18C8.97085 16.4829 9.05553 14.9657 9.20372 13.4839H1.10997C0.728919 14.9304 0.503113 16.4335 0.503113 18C0.503113 19.5665 0.728919 21.0696 1.10997 22.5161H9.19666C9.05553 21.0343 8.97085 19.5171 8.97085 18V18ZM11.7582 24.7742C12.7813 31.0756 15.1946 35.5 18.0031 35.5C20.8116 35.5 23.2249 31.0756 24.2481 24.7742H11.7582ZM22.9991 34.7661C28.0374 33.2702 32.1301 29.5655 34.1483 24.7742H26.5273C25.9063 28.7893 24.7209 32.3811 22.9991 34.7661ZM1.86501 24.7742C3.88315 29.5655 7.96884 33.2702 13.0142 34.7661C11.2924 32.3811 10.1069 28.7893 9.48597 24.7742H1.86501V24.7742Z" fill="#6B6D7D"/>
</svg>
